<svg xmlns="http://www.w3.org/2000/svg" version="1.1" xmlns:xlink="http://www.w3.org/1999/xlink" xmlns:svgjs="http://svgjs.dev/svgjs" width="100%" height="100%" viewBox="0 0 1000 600"><rect width="1000" height="600" x="0" y="0" fill="#ffe8f5"/><g><rect width="333.3333333333333" height="333.3333333333333" y="242.48117498765384" fill="#8000ff" transform="matrix(0.5675138239125792,0,0,0.5675138239125792,-5.916865129365349,67.80294002248083)" x="244.36593627929685"/><path d="M356.7033035408814 348.05614538712626L352.4592263673492 350.0503503240872Q352.38252617746605 349.8713832143599 351.2064565992582 348.05614538712626Q350.0303870210505 346.2664742898536 347.24361345529746 344.19556916300957Q344.4568398895443 342.1246640361655 339.80369503663553 340.4628265886981Q335.1249834537656 338.8009891412306 328.11969944444127 338.8009891412306L328.11969944444127 338.8009891412306Q316.9726051814288 338.8009891412306 306.1323116779489 343.17289996456805Q295.2920181744689 347.5192440579445 285.49996059939144 355.08699612641163Q275.70790302431396 362.62918146491774 267.3987157869767 372.75360652948865Q259.08952854963945 382.8524648640985 252.97908008895152 394.3063598866434Q246.84306489830246 405.78582163914933 243.44268981348446 417.9555851006033Q240.0167479987054 430.12534856205724 240.0167479987054 441.80934415425145L240.0167479987054 441.80934415425145Q240.0167479987054 449.9906977417835 242.57342099480917 456.9192815612247Q245.15566072087398 463.8478653806659 249.96220595354905 468.8333777230683Q254.76875118622414 473.8188900654706 261.6973350056653 476.6567970911458Q268.6003520951456 479.4691373868599 277.42087393170357 479.4691373868599L277.42087393170357 479.4691373868599Q285.14202637993696 479.4691373868599 292.8376120982092 477.2192651502886Q300.5076310865205 474.9949596436783 307.7941491254163 470.92984957987335Q315.080667164312 466.8903062460294 321.7791504141039 461.26562565460114Q328.47763366389574 455.66651179313385 334.30684809501236 449.0447287332251Q340.16162925609 442.44851240327733 344.91704102884296 435.03416071457644Q349.672452801596 427.6198090258755 353.0983946163751 419.8730898476811Q356.5243364311541 412.1519373994477 358.3651409883488 404.32851803137015Q360.2059455455435 396.50509866329264 360.2059455455435 389.1418804345138L360.2059455455435 389.1418804345138Q360.2059455455435 381.42072798628044 358.1350404186994 375.48924663531966Q356.06413529185545 369.55776528435894 352.38252617746605 365.54378868047604Q348.70091706307653 361.5553788065542 343.61313780083003 359.5356071396322Q338.52535853858365 357.5158354727102 332.51717699773974 357.5158354727102L332.51717699773974 357.5158354727102Q326.6623958366621 357.5158354727102 320.8331814055455 359.61230732951526Q314.97840024446793 361.7343459162814 309.634953682611 365.54378868047604Q304.2915071207541 369.37879817463164 299.66392899780635 374.59441108668335Q295.0363508748585 379.784457268774 291.6104090600794 385.94603918938407Q288.21003397526147 392.10762110999417 286.2669624982226 399.08733838935746Q284.3238910211837 406.0414889387597 284.3238910211837 413.22574005781127L284.3238910211837 413.22574005781127Q284.3238910211837 418.7225869994344 285.67892770911874 423.3501651223822Q287.03396439705375 427.97774324533003 289.283836633625 431.5570854398753Q291.5337088701963 435.16199436438166 294.44831608575464 437.53970025075813Q297.3629233013129 439.9174061371346 300.5076310865205 440.837808415732L300.5076310865205 440.837808415732L299.71506245772844 444.59611772000454Q295.2153179845858 443.98251620093964 290.58773986163794 441.63037704452415Q285.9601617386901 439.3038046180697 282.2274191643786 435.21312782430374Q278.4946765900671 431.12245103053766 276.11697070369064 425.13983621965485Q273.73926481731405 419.15722140877205 273.73926481731405 411.3338020406945L273.73926481731405 411.3338020406945Q273.73926481731405 403.9705838119157 275.88687013404126 396.73519923294197Q278.03447545076847 389.4998146539683 281.94618513480725 382.98029851390373Q285.8578948188459 376.4607823738391 291.2524748406249 370.938368702255Q296.6470548624038 365.41595503067083 303.16657100246846 361.427545156749Q309.6860871425331 357.413568552866 317.100438831234 355.1125628563727Q324.514790519935 352.83712388984026 332.33820988801244 352.83712388984026L332.33820988801244 352.83712388984026Q339.80369503663553 352.83712388984026 345.8118765774793 355.393796885944Q351.84562484828416 357.9504698820478 356.06413529185545 362.6803149248398Q360.2826457354266 367.38459323767074 362.5836514319201 374.1342099473847Q364.8590903984524 380.8838266570986 364.8590903984524 389.24414735435795L364.8590903984524 389.24414735435795Q364.8590903984524 397.1442669123186 362.94158565137457 405.45345414965584Q360.9985141743357 413.7626413869931 357.4447387097515 421.9184282445641Q353.91652997512824 430.0486483721741 348.8798841728038 437.82093428032954Q343.8432383704794 445.593220188485 337.73278990979145 452.5218040079262Q331.6223414491034 459.42482109740644 324.56592397985696 465.22846879856195Q317.50950651061066 471.03211649971746 309.7627873324162 475.25062694328875Q302.0416348841828 479.4691373868599 293.8602812966508 481.82127654327536Q285.67892770911874 484.14784896972986 277.42087393170357 484.14784896972986L277.42087393170357 484.14784896972986Q267.8077834663534 484.14784896972986 259.26849565936675 480.95200772460015Q250.7292078523802 477.7817332094315 244.38865882204286 471.5690178288993Q238.0481097917055 465.35630244836716 234.36650067731608 456.33124677212083Q230.68489156292665 447.3061910958745 230.68489156292665 435.6221955036803L230.68489156292665 435.6221955036803Q230.68489156292665 422.5831632235511 234.0341331878226 410.00433208272057Q237.40894154267957 397.42550094189 243.57052346328965 386.12500629911136Q249.73210538389972 374.8500783862937 258.34809338076946 365.3136881108267Q266.98964810760015 355.8028645653207 277.4975741215867 348.87428074587945Q288.03106686553417 341.94569692643825 300.14969686706604 338.03398724239946Q312.29389359855895 334.1478442883218 325.40962606857124 334.1478442883218L325.40962606857124 334.1478442883218Q331.5200745292593 334.1478442883218 336.19878611212914 335.11938002684116Q340.8774976949991 336.1164824953217 344.3290062397391 337.5993528330618Q347.78051478447924 339.082223170802 350.13265394089467 340.82076080815256Q352.4592263673492 342.5848651754642 353.91652997512824 344.1700024330485Q355.3482668529464 345.7295729606718 355.9618683720113 346.8033756190354Q356.6010366210372 347.87717827739897 356.7033035408814 348.05614538712626L356.7033035408814 348.05614538712626ZM577.6254171342081 335.47731424629575L577.6254171342081 335.47731424629575Q580.2332235902338 335.47731424629575 582.7131963964545 336.346583064971Q585.1676024727141 337.19028515368524 587.1106739497529 338.7754224112696Q589.0281786968308 340.33499293889287 590.2042482750386 342.6359986353863Q591.3803178532463 344.91143760191864 591.3803178532463 347.80047808751584L591.3803178532463 347.80047808751584Q591.3803178532463 353.3740252190221 587.77540892874 360.4815761481905Q584.1960667341947 367.563560347398 578.4435524929612 377.09995062286504L578.4435524929612 377.09995062286504Q572.2308371124291 387.249942417397 566.759556900767 397.3743674819679Q561.2627099591439 407.47322581657784 556.558431646313 416.8817824422397Q551.828586603521 426.26477233794054 547.9168769194822 434.5739595752778Q544.0051672354434 442.883146812615 541.1416934798073 449.45379641260166L541.1416934798073 449.45379641260166Q544.7210356743525 449.91399755190037 548.3259445988589 450.16966485151073Q551.9052867934041 450.4508988810822 554.7943272790014 450.348631961238L554.7943272790014 450.348631961238L554.9732943887286 455.0273435441079Q554.3341261397027 455.0273435441079 550.2434493459367 454.9762100841858Q546.1527725521706 454.95064335422484 539.1474885428463 453.9535408857443L539.1474885428463 453.9535408857443Q536.3607149770932 460.42192356588686 534.877844639353 464.02683249039313Q533.3949743016128 467.6061746849385 533.3949743016128 467.7851417946657L533.3949743016128 467.7851417946657L522.7080811778991 464.46146689973085L528.1026611996781 452.1638697884717Q522.0689129288731 450.8088331005367 515.4215631390033 449.01916200326406Q508.77421334913356 447.2039241760304 501.89676298961433 444.92848520949804Q495.0193126300952 442.62747951300463 488.1929957304982 439.73843902740737Q481.36667883090115 436.87496527177115 475.0772632604859 433.4490234569921L475.0772632604859 433.4490234569921Q469.22248209940824 440.19864016670607 462.3961651998112 446.71815630677065Q455.56984830021406 453.2376724468353 447.7464289321366 458.40215189896486Q439.92300956405904 463.5666313510945 431.15362118742314 466.7624725962242Q422.3842328107871 469.9583138413539 412.69444215555393 469.9583138413539L412.69444215555393 469.9583138413539Q404.0528874287231 469.9583138413539 395.48803289177556 467.3760741152891Q386.89761162486684 464.81940111918533 380.09686145523085 459.93615569662717Q373.3216780155559 455.0273435441079 369.1031675719846 447.9709260748615Q364.8590903984524 440.91450860561514 364.8590903984524 431.9405863892909L364.8590903984524 431.9405863892909Q364.8590903984524 424.8330354601224 367.51803031440033 419.43845543834345Q370.1769702303483 414.0438754165645 374.8045483532961 410.4389664920582Q379.43212647624387 406.85962429751294 385.67040858673704 405.0188197403182Q391.93425742719137 403.1780151831235 399.1185085462429 403.1780151831235L399.1185085462429 403.1780151831235Q404.589788757905 403.1780151831235 410.49570337890464 404.2518178414871Q416.37605126994333 405.3256204998507 421.9495984014495 407.8311600360324Q427.5231455329558 410.3622663021751 432.45752441543607 414.50407655586315Q437.41747002787736 418.6203200795903 440.92011203253946 424.73076854027823L440.92011203253946 424.73076854027823L436.9572688885787 427.26187480642096Q436.85500196873454 427.0829076966937 435.93459969013713 425.8557046585639Q434.9886306815787 424.65406835039516 433.147826124384 422.88996398308353Q431.3070215671893 421.151426345733 428.4179810815921 419.15722140877205Q425.5545073259558 417.18858320177213 421.54053072207296 415.52674575430467Q417.55212084815105 413.8649083068372 412.28537447617725 412.7399721885516Q407.0186281042036 411.61503607026594 400.3712783143337 411.61503607026594L400.3712783143337 411.61503607026594Q393.6216616046198 411.61503607026594 388.61058253225644 413.9160417667593Q383.57393672993203 416.19148073329166 380.199128375075 419.7452561978759Q376.824320020218 423.29903166246015 375.1624825727506 427.6965092157586Q373.5006451252832 432.1195534990182 373.5006451252832 436.2357970227452L373.5006451252832 436.2357970227452Q373.5006451252832 441.0934757153424 375.2136160326727 445.1074523192253Q376.9265869400622 449.0958621931472 379.8411941556204 452.342836898199Q382.7558013711788 455.5642448732897 386.6675110552176 457.9419507596662Q390.57922073925636 460.3196566460427 394.92556483263274 461.9559273635491Q399.2974756559702 463.5666313510945 403.82278685907386 464.3847667098477Q408.3736647921386 465.1773353386399 412.69444215555393 465.1773353386399L412.69444215555393 465.1773353386399Q421.59166418199504 465.1773353386399 429.7730177695271 462.26272812308156Q437.95437135705913 459.3481209075233 445.21532266599377 454.54157567484816Q452.50184070488956 449.7350304421731 458.94465665507107 443.6245819814851Q465.36190587529154 437.5141335207971 470.83318608695356 431.12245103053766L470.83318608695356 431.12245103053766Q464.7227376262656 427.44084191614826 459.558258174136 423.171198012655Q454.39377872200635 418.9015541091617 450.6099026877728 413.9927419566424Q446.85159338350024 409.10949653408426 444.7295547967341 403.4848159426559Q442.607516209968 397.86013535122765 442.607516209968 391.5707197808124L442.607516209968 391.5707197808124Q442.607516209968 386.3551068687607 444.5505876870069 381.778662205735Q446.49365916404565 377.2022175427092 449.8429007889416 373.7251422680081Q453.21770914379863 370.273633723268 457.8452872667465 368.253862056346Q462.4728653896942 366.234090389424 467.7907452215901 366.234090389424L467.7907452215901 366.234090389424Q473.7222265725509 366.234090389424 479.0145396744857 368.07489494661877Q484.3324195063815 369.91569950381347 489.08783127913455 373.1115407489432Q493.8432430518875 376.28181526411186 498.03618676549763 380.70485954737137Q502.20356374914684 385.10233710066984 505.88517286353624 390.2156830928774L505.88517286353624 390.2156830928774Q515.9584644681852 378.9918886399818 525.9806226129119 369.0464306851382Q536.0027807576387 359.1265394602556 545.2579370035344 351.66105431163254Q554.51309324943 344.19556916300957 562.7455802968841 339.8492250696332Q570.9780673443382 335.47731424629575 577.6254171342081 335.47731424629575ZM508.6719464292894 394.3574933465655L508.6719464292894 394.3574933465655Q512.9160236028216 400.82587602670804 516.4186656074838 407.75445984614925Q519.9213076121459 414.68304366559045 522.7592146378212 421.33039345546024Q525.5715549335353 427.97774324533003 527.7958604401456 433.96035805621284Q529.9945992167949 439.9174061371346 531.6053032043402 444.5194175301214L531.6053032043402 444.5194175301214Q542.1132292183266 421.5860607550706 554.0784588400924 399.5731062586172Q566.0181217318969 377.56015176216374 580.9490920291429 356.058531864931L580.9490920291429 356.058531864931Q583.3779313754416 352.4791896703858 584.400600573883 350.10148378400925Q585.4488365022855 347.69821116767173 585.4488365022855 346.0108069902432L585.4488365022855 346.0108069902432Q585.4488365022855 343.121766504646 583.019997155987 341.6388961669058Q580.5911578096884 340.15602582916557 577.4464500244807 340.15602582916557L577.4464500244807 340.15602582916557Q567.475425339676 340.15602582916557 550.2434493459367 353.7830928983987Q533.0370400821583 367.38459323767074 508.6719464292894 394.3574933465655ZM450.78886979750007 395.89149714422774L450.78886979750007 395.89149714422774Q450.78886979750007 400.64690891698075 452.60410762473373 404.91655282047407Q454.39377872200635 409.1861967239673 457.538486507214 413.0979064080061Q460.6831942924216 417.0096160920449 465.00397165583706 420.461124636785Q469.3247490192524 423.9381999114861 474.33582809161567 426.98064077684955L474.33582809161567 426.98064077684955Q481.0854448013297 418.7992871893175 488.090728810654 410.54123341190234Q495.1215795499394 402.2576129045261 502.305830668991 394.17852623683825L502.305830668991 394.17852623683825Q499.16112288378326 390.03671598315015 495.78631452892637 386.4829405185659Q492.41150617406936 382.9547317839427 488.72989705967996 380.34692532791684Q485.04828794529055 377.739118871891 481.0854448013297 376.28181526411186Q477.1226016573688 374.8500783862937 472.90409121379764 374.8500783862937L472.90409121379764 374.8500783862937Q468.1486794410447 374.8500783862937 464.1091361072007 376.4607823738391Q460.0695927733567 378.0970530913455 457.0782853679153 380.90939338705965Q454.1125446924349 383.7473004127349 452.4507072449675 387.58230990689054Q450.78886979750007 391.3917526710851 450.78886979750007 395.89149714422774ZM527.6424600603793 447.12722398614727L527.6424600603793 447.12722398614727Q526.3896902922885 443.0621139223423 524.2676517055223 437.3095996811088Q522.1711798487173 431.5570854398753 519.3332728230421 424.9608691099276Q516.495365797367 418.36465277997985 512.9415903327827 411.43606896053865Q509.4133815981595 404.50748514109745 505.1693044246273 398.2180695706822L505.1693044246273 398.2180695706822Q498.9821557740561 405.2233535800065 492.33480598418623 412.97007275820096Q485.66188946435545 420.69122520643435 478.47763834530383 429.40948012314817L478.47763834530383 429.40948012314817Q484.7670539157191 432.91212212781033 491.6445042752383 435.7500291534855Q498.52195463475744 438.5879361791607 505.0414707748221 440.78667495580993Q511.5609869148866 442.98541373245916 517.4413348059253 444.59611772000454Q523.347249426925 446.23238843751096 527.6424600603793 447.12722398614727Z " fill="#ffe8f5" transform="matrix(0.5675138239125792,0,0,0.5675138239125792,-5.916865129365349,67.80294002248083)"/><path d="M759.99526564415 350.4508837673031L756.6623784396078 352.0169392007627Q756.602145538321 351.87639576442655 755.678574385255 350.4508837673031Q754.7550032321891 349.04544940394186 752.566541152098 347.41916106919535Q750.3780790720072 345.79287273444885 746.7239497272681 344.48782653989923Q743.0497427487667 343.18278034534956 737.5484710978958 343.18278034534956L737.5484710978958 343.18278034534956Q728.7946227775318 343.18278034534956 720.2817060623156 346.61605571870325Q711.7687893470994 350.0292534582947 704.0790556161375 355.97223305193626Q696.3893218851756 361.8951350118155 689.8640909124273 369.8458779816873Q683.3388599396789 377.7765433177968 678.5403054704886 386.77132324330836Q673.721673367536 395.7861808025822 671.0513480771498 405.34313447343817Q668.3609451530012 414.9000881442942 668.3609451530012 424.0755667736665L668.3609451530012 424.0755667736665Q668.3609451530012 430.5004095776033 670.3687085292314 435.9414483271873Q672.3965495392241 441.38248707677127 676.1711446865369 445.29762566042024Q679.9457398338499 449.21276424406926 685.3867785834337 451.44138159168483Q690.8077396992554 453.6499213055381 697.7345233472498 453.6499213055381L697.7345233472498 453.6499213055381Q703.7979687434653 453.6499213055381 709.8413365059183 451.88308953445545Q715.8646266346091 450.13633539713516 721.5867522568652 446.94399162892904Q727.3088778791215 443.7717254944852 732.5692179248448 439.3546460667787Q737.8295579705681 434.95764427283444 742.407258468373 429.7575371283981Q747.0050365999404 424.57750761772405 750.7394764797285 418.7549938266563Q754.4739163595169 412.9324800355885 757.1643192836653 406.8489570056109Q759.854722207814 400.78551160939554 761.3003118386997 394.64175567813095Q762.7459014695854 388.49799974686636 762.7459014695854 382.71564122332325L762.7459014695854 382.71564122332325Q762.7459014695854 376.65219582710785 761.1196131348389 371.99418479425367Q759.4933248000924 367.3361737613995 756.602145538321 364.183985260718Q753.7109662765494 361.0518743937988 749.7155171578512 359.4657413265769Q745.7200680391529 357.879608259355 741.0018241050119 357.879608259355L741.0018241050119 357.879608259355Q736.4040459734446 357.879608259355 731.8263454756396 359.5259742278638Q727.2285673440723 361.19241783013496 723.032341887751 364.183985260718Q718.8361164314298 367.19563032506335 715.202064720453 371.2914676125731Q711.5680130094763 375.3672272663205 708.8776100853278 380.20593700303544Q706.2072847949415 385.0446467397503 704.6813846290065 390.52584075685894Q703.1554844630715 395.9869571402052 703.1554844630715 401.62877222741224L703.1554844630715 401.62877222741224Q703.1554844630715 405.9454634863073 704.2195990524737 409.579515197284Q705.2837136418756 413.2135669082608 707.0505454129583 416.02443563498315Q708.8173771840409 418.8553819954678 711.1062274329433 420.7226019353619Q713.3950776818459 422.58982187525606 715.8646266346091 423.312616690699L715.8646266346091 423.312616690699L715.2422199879776 426.26402885375745Q711.7085564458124 425.7821656434622 708.0745047348356 423.93502333733034Q704.4404530238588 422.1079586649608 701.5091184945628 418.8955372629924Q698.5777839652666 415.683115861024 696.7105640253725 410.9849495606452Q694.8433440854783 406.2867832602664 694.8433440854783 400.1430273290018L694.8433440854783 400.1430273290018Q694.8433440854783 394.3606688054587 696.5298653215117 388.6786984507271Q698.2163865575451 382.9967280959955 701.2882645231774 377.8769314866083Q704.3601424888096 372.7571348772212 708.5965232126556 368.42036598456383Q712.8329039365013 364.0835970919065 717.9527005458884 360.95148622498726Q723.0724971552758 357.79929772430575 728.8950109463434 355.99231068569856Q734.717524737411 354.2054012808536 740.8612806686757 354.2054012808536L740.8612806686757 354.2054012808536Q746.7239497272681 354.2054012808536 751.4421936614091 356.2131646570839Q756.1805152293126 358.2209280333141 759.4933248000924 361.9352902793401Q762.8061343708724 365.6295748916038 764.6131214094795 370.93007020485163Q766.4000308143246 376.2305655180995 766.4000308143246 382.79595175837244L766.4000308143246 382.79595175837244Q766.4000308143246 388.9999405909239 764.8942082821519 395.52517156367225Q763.3683081162168 402.05040253642056 760.5775170232567 408.4551677065951Q757.8068035640591 414.8398552430073 753.8515097128854 420.94345590674726Q749.8962158617119 427.04705657048726 745.0976613925216 432.48809532007124Q740.2991069233312 437.9090564358929 734.7576800049358 442.4666792999356Q729.2162530865402 447.02430216397823 723.1327300565625 450.3371117347582Q717.0692846603472 453.6499213055381 710.6444418564104 455.49706361166994Q704.2195990524737 457.3241282840395 697.7345233472498 457.3241282840395L697.7345233472498 457.3241282840395Q690.1853330526241 457.3241282840395 683.4794033760151 454.8144240637517Q676.773473699406 452.3247974772261 671.7942205263549 447.4459324729866Q666.8149673533039 442.5670674687471 663.9237880915324 435.4796627506543Q661.0326088297608 428.39225803256153 661.0326088297608 419.21677940318926L661.0326088297608 419.21677940318926Q661.0326088297608 408.97718618441496 663.6627788526224 399.09899037336214Q666.3130265092464 389.22079456230927 671.1517362459613 380.34648043937153Q675.9904459826762 371.4922439501961 682.7566085605721 364.0032865568573Q689.5428487722304 356.5344067972807 697.7947562485368 351.09336804769674Q706.0667413586053 345.65232929811276 715.5835397619368 342.58045133248044Q725.1204157990305 339.52865100061047 735.4202419190917 339.52865100061047L735.4202419190917 339.52865100061047Q740.218796388282 339.52865100061047 743.8930033667833 340.291601083578Q747.5672103452847 341.0746288003078 750.2776909031955 342.2391315585213Q752.9881714611064 343.4036343167349 754.8353137672383 344.7689134125714Q756.6623784396078 346.15427014217033 757.8068035640591 347.39908343543306Q758.931151054748 348.6238190949335 759.4130142650432 349.46707971295024Q759.9149551091008 350.31034033096694 759.99526564415 350.4508837673031L759.99526564415 350.4508837673031ZM802.1181412774607 425.50107877078995L802.1181412774607 425.50107877078995Q798.8856422417301 429.2957515518651 795.6932984735239 432.50817295383354Q792.5210323390801 435.72059435580195 789.3889214721609 438.0295222384667Q786.2367329714795 440.31837248736923 783.1447773720848 441.6234186819189Q780.032744138928 442.9284648764686 776.8604780044842 442.9284648764686L776.8604780044842 442.9284648764686Q774.1700750803356 442.9284648764686 772.0217682677693 441.96473845587803Q769.8734614552028 441.0210896690498 768.2873283879809 439.2944131654918Q766.701195320759 437.5677366619338 765.83785706898 435.05803244164593Q764.9945964509633 432.54832822135813 764.9945964509633 429.43629498820127L764.9945964509633 429.43629498820127Q764.9945964509633 424.57750761772405 767.1429032635298 419.41755574081225Q769.3112877098584 414.27768149766285 772.5839420131136 409.39881649342334Q775.8766739501312 404.5199514891838 779.8520454350672 400.1430273290018Q783.8474945537654 395.7861808025822 787.4413909972176 392.3930606967531L787.4413909972176 392.3930606967531L790.4731136953252 394.5012122417948Q787.9433318412752 398.2557297553454 784.7911433405937 402.9739736894865Q781.6590324736745 407.71229525738994 778.8682413807145 412.75178133172784Q776.0774502877545 417.79126740606574 774.1700750803356 422.850831114166Q772.2626998729169 427.89031718850396 772.2626998729169 432.207008447399L772.2626998729169 432.207008447399Q772.2626998729169 435.09818770917053 773.3669697298436 437.1461063529254Q774.451161953008 439.1940249966803 777.5631951861648 439.1940249966803L777.5631951861648 439.1940249966803Q780.956315291994 439.1940249966803 785.0119973119789 436.50362207253175Q789.0676793319641 433.8132191483832 793.3442153233347 429.51660552325046Q797.6006736809428 425.2199918981177 801.8772096723131 419.8191084160583Q806.1537456636835 414.41822493399894 809.9684960785211 408.89687564936577Q813.7631688595962 403.39560399849483 816.9153573602777 398.39627319168153Q820.0474682271969 393.37686475110587 822.035153969665 389.8432012089406L822.035153969665 389.8432012089406L827.1750282128143 392.3930606967531Q823.0992685590669 400.44419183543636 819.3045957779917 407.39105311719305Q815.530000630679 414.33791439894975 812.5986661013827 419.8793413173452Q809.6874092058489 425.42076823574075 807.9406550685286 429.51660552325046Q806.2139785649705 433.6124428107602 806.2139785649705 436.0016812284742L806.2139785649705 436.0016812284742Q806.2139785649705 437.0055629165893 806.6356088739789 437.6279695632207Q807.0572391829872 438.27045384361435 807.9808103360532 438.27045384361435L807.9808103360532 438.27045384361435Q810.5909027251524 438.33068674490124 813.7430912258341 436.0016812284742Q816.875202092753 433.67267571204707 820.0876234947215 430.1590898036441Q823.3000448966899 426.6254262614789 826.3719228623223 422.4292008051577Q829.4438008279545 418.2128977150741 831.9133497807178 414.55876837033503L831.9133497807178 414.55876837033503L834.4632092685302 416.5263764790407Q834.0215013257595 417.2290936607213 832.6963774974475 419.41755574081225Q831.3511760353732 421.6060178209032 829.3634902929053 424.4369641813879Q827.3958821841996 427.2478329081103 824.8460226963872 430.35986614126716Q822.3162408423372 433.471899374424 819.4852944818525 436.0418364959988Q816.6744257551301 438.61177361757353 813.62262542326 440.27821721984463Q810.5909027251524 441.94466082211574 807.639490562094 441.94466082211574L807.639490562094 441.94466082211574Q805.7923482559621 441.94466082211574 804.3467586250764 441.3021765417221Q802.9011689941905 440.65969226132836 801.9173649398377 439.6156553056886Q800.933560885485 438.55154071628664 800.3513095063782 437.1461063529254Q799.7891357610337 435.72059435580195 799.7891357610337 434.17461655610464L799.7891357610337 434.17461655610464Q799.7891357610337 432.3475518837351 800.3914647739028 430.1590898036441Q800.9937937867718 427.97062772355315 802.1181412774607 425.50107877078995ZM833.8809578894235 382.65540832203635L846.2487802870018 382.65540832203635Q846.9514974686823 381.45075029629817 848.7384068735272 378.4792604994774Q850.5453939121345 375.5278483364189 852.9747875973732 371.9138742592045Q855.424258916374 368.31997781575234 858.2752829106211 364.68592610477555Q861.1263069048679 361.0518743937988 863.8970203640657 358.50201490598636L863.8970203640657 358.50201490598636L867.0692864985095 360.4093901134051Q864.0375638004017 365.42879855398076 860.8452200321957 371.0304583736632Q857.6729538977519 376.65219582710785 854.5609206645951 382.65540832203635L854.5609206645951 382.65540832203635L877.5899665899561 382.65540832203635L876.1644545928326 386.3095376667754L852.6736230909386 386.3095376667754Q849.4812793227323 392.6741475694253 846.6904882297723 398.958446937026Q843.9197747705747 405.2427463046267 841.7915455917706 410.94479429312065Q839.6833940467287 416.6669199153768 838.4787360209906 421.6461730884279Q837.2740779952525 426.6254262614789 837.2740779952525 430.29963323998027L837.2740779952525 430.29963323998027Q837.2740779952525 434.87733373778525 839.4023071740565 436.8850971140155Q841.5104587190984 438.91293812400806 844.6224919522552 438.91293812400806L844.6224919522552 438.91293812400806Q847.3731277776907 438.91293812400806 850.2643070394623 437.2464945217369Q853.1554863012337 435.5800509194658 855.946277394194 433.0502690654157Q858.737068487154 430.5004095776033 861.2467727074417 427.4686868794956Q863.7564769277295 424.4369641813879 865.6839297689106 421.74656125723936Q867.6314602438539 419.0762359668531 868.896351170879 417.0483949568606Q870.1612420979042 415.0406315806303 870.4423289705763 414.55876837033503L870.4423289705763 414.55876837033503L873.072498993438 416.5263764790407Q870.6029500406747 420.62221376655043 867.4909168075179 425.2199918981177Q864.3788835743609 429.7976923959227 860.6042884270481 433.7128309795717Q856.8296932797351 437.6279695632207 852.372458584504 440.21798431855774Q847.9353015230353 442.78792144013244 842.7753496461233 442.78792144013244L842.7753496461233 442.78792144013244Q839.6030835116795 442.78792144013244 837.2339227277279 441.6635739494435Q834.8848395775386 440.5191488249922 833.2585512427921 438.511385448762Q831.6322629080456 436.50362207253175 830.809079923791 433.7529862470963Q830.0059745732991 431.0023504216608 830.0059745732991 427.7497737521678L830.0059745732991 427.7497737521678Q830.0059745732991 425.64162220712603 830.6685364874551 421.74656125723936Q831.3511760353732 417.871577941115 832.9774643701197 412.5309273603425Q834.6037527048662 407.21035441333237 837.3142332627771 400.5847352717725Q840.0247138206879 393.93903849645034 844.2008616432469 386.3095376667754L844.2008616432469 386.3095376667754L832.4755235260621 386.3095376667754L833.8809578894235 382.65540832203635ZM946.1149306206947 346.15427014217033L949.1466533188024 348.12187825087597Q948.3837032358348 349.2663033753272 946.6168714647523 351.87639576442655Q944.8500396936696 354.48648815352584 942.5210341772425 358.08038459697804Q940.1920286608153 361.6742810404302 937.4815481029046 366.0512052006121Q934.7509899112314 370.42812936079406 932.0405093533205 375.08614039364824Q929.3300287954097 379.74415142650247 926.7400140400727 384.5226282619305Q924.170076918498 389.28102746359616 922.1823911760299 393.6579516237781L922.1823911760299 393.6579516237781Q919.0904355766355 400.44419183543636 917.0826722004052 405.76476478244655Q915.0548311904125 411.08533772945674 913.890328432199 415.26148555201564Q912.7258256739855 419.41755574081225 912.2640400974525 422.4894337064446Q911.8223321546819 425.56131167207684 911.8223321546819 427.7497737521678L911.8223321546819 427.7497737521678Q911.8223321546819 431.7653005046283 913.0470678141822 433.33135593808794Q914.2918811074452 434.87733373778525 916.4000326524869 434.87733373778525L916.4000326524869 434.87733373778525Q918.5884947325777 434.87733373778525 920.596258108808 433.7529862470963Q922.6240991188007 432.6286387564073 924.4913190586948 430.86180698532473Q926.3585389985889 429.0949752142421 928.0049049670978 426.8262025991019Q929.6713485693689 424.57750761772405 931.1169382002546 422.30873500258383Q932.5625278311405 420.06004002120596 933.7671858568787 418.0121213774511Q934.9718438826168 415.96420273369625 935.8753374019203 414.55876837033503L935.8753374019203 414.55876837033503L938.4251968897328 416.5263764790407Q937.642169173003 417.79126740606574 936.4776664147893 419.8793413173452Q935.313163656576 421.9674152286247 933.8474963919278 424.4369641813879Q932.3617514935173 426.9065131341511 930.4543762860986 429.41621735443897Q928.54700107868 431.9259215747268 926.2581508297775 433.9537625847193Q923.9492229471126 436.0016812284742 921.1584318541526 437.30672742302386Q918.3877183949547 438.61177361757353 915.1351417254617 438.61177361757353L915.1351417254617 438.61177361757353Q913.5891639257644 438.61177361757353 911.8424097884441 438.19014330856515Q910.1157332848862 437.7685129995568 908.6299883864757 436.72447604391704Q907.1643211218276 435.660361454515 906.0198959973765 433.7931415146209Q904.8955485066875 431.9259215747268 904.5542287327283 429.0146646791929L904.5542287327283 429.0146646791929Q899.2537334194805 434.7367903014491 894.2343249789047 437.6681248307453Q889.2349941720914 440.59945936004146 884.7777594768603 440.59945936004146L884.7777594768603 440.59945936004146Q882.5290644954824 440.59945936004146 879.7985063038094 439.81643164331166Q877.0880257458986 439.05348156034415 874.6787096944221 437.1461063529254Q872.2894712767082 435.2387311455067 870.6631829419617 432.08654264482516Q869.0368946072152 428.954431777906 869.0368946072152 424.29642074505176L869.0368946072152 424.29642074505176Q869.0368946072152 419.0762359668531 870.6631829419617 414.33791439894975Q872.2894712767082 409.6196704648086 875.0401071021437 405.5439108110612Q877.7907429275791 401.4882287910761 881.3645617372689 398.2155744878208Q884.9183029131965 394.9228425508032 888.813363863083 392.6339923019007Q892.6883471792077 390.3451420529982 896.6034857628566 389.0802511259731Q900.5186243465056 387.7952825651858 903.9719773536216 387.7952825651858L903.9719773536216 387.7952825651858Q908.5697554851889 387.7952825651858 911.1798478742882 388.91963005587473Q913.7899402633874 390.06405518032597 915.1351417254617 391.1884026710149L915.1351417254617 391.1884026710149Q916.1189457798147 389.22079456230927 917.805467015848 386.14891659667694Q919.5120658856437 383.0770386310447 921.7607608670218 379.3024434837318Q924.0295334821618 375.5278483364189 926.7801693075972 371.25131234504846Q929.5308051330327 366.974776353678 932.6428383661895 362.63800746102066Q935.7347939655841 358.3012385683633 939.1680693389379 354.0648578445175Q942.5812670785293 349.82847712067166 946.1149306206947 346.15427014217033L946.1149306206947 346.15427014217033ZM904.4739181976792 423.7342469997073L904.4739181976792 423.7342469997073Q904.8353156054005 418.51406222150865 906.9033118829178 411.40657986965357Q908.9913857941973 404.3191751515608 913.28799941933 395.06338598713927L913.28799941933 395.06338598713927Q912.3041953649771 393.5977187224912 910.5172859601322 392.7745357382368Q908.7102989215249 391.9714303877447 906.4415263063848 391.9714303877447L906.4415263063848 391.9714303877447Q902.9881732992689 391.9714303877447 899.4344321233413 393.37686475110587Q895.8606133136512 394.78229911446704 892.587959010396 397.19161516594335Q889.2952270733784 399.58085358365736 886.4040478116068 402.87358552067496Q883.5128685498354 406.14623982393033 881.3645617372689 409.90075733748085Q879.1961772909402 413.63519721726914 877.9714416314397 417.69087923725425Q876.726628338177 421.74656125723936 876.726628338177 425.701855108413L876.726628338177 425.701855108413Q876.726628338177 431.0023504216608 878.9552456857926 433.9537625847193Q881.1838630334081 436.9252523815401 884.9183029131965 436.9252523815401L884.9183029131965 436.9252523815401Q886.685134684279 436.9252523815401 888.813363863083 436.2225351998595Q890.921515408125 435.5198180181789 893.4312196284128 433.933684950957Q895.9409238487007 432.3475518837351 898.6915596741361 429.8378476634473Q901.4421954995715 427.3281434431595 904.4739181976792 423.7342469997073ZM975.6892851525662 421.68632835595247L975.6892851525662 421.68632835595247Q975.9703720252386 421.74656125723936 976.2514588979108 421.74656125723936Q976.5325457705829 421.74656125723936 976.8939431783045 421.74656125723936L976.8939431783045 421.74656125723936Q978.86155128701 421.74656125723936 980.4878396217565 421.36508621575564Q982.114127956503 420.98361117427186 983.4994846861019 420.12027292249286Q984.8647637819384 419.27701230447616 986.149732342726 417.9117332086396Q987.4146232697509 416.5263764790407 988.619281295489 414.55876837033503L988.619281295489 414.55876837033503L991.1490631495393 416.5263764790407Q987.7559430437101 421.32493094823104 984.1620466002579 423.2323061556498Q980.5681501568059 425.1396813630685 976.5325457705829 425.1396813630685L976.5325457705829 425.1396813630685Q975.0668785059348 425.1396813630685 973.9224533814837 424.85859449039623L973.9224533814837 424.85859449039623Q970.8907306833759 429.93823583225884 967.4373776762599 433.5120546419487Q963.9840246691439 437.0657958178762 960.3700505919295 439.3345684330164Q956.7761541484773 441.58326341439425 953.2424906063119 442.6072227362717Q949.7289046979091 443.63118205814914 946.6771043660391 443.63118205814914L946.6771043660391 443.63118205814914Q943.5851487666445 443.63118205814914 940.9349011100206 442.5469898349848Q938.2846534533966 441.44271997805816 936.3772782459779 439.3948013343033Q934.4699030385592 437.34688269054845 933.4057884491571 434.5360139638261Q932.3617514935173 431.70506760334143 932.3617514935173 428.1714040611762L932.3617514935173 428.1714040611762Q932.3617514935173 424.63774051901095 933.4860989842063 420.98361117427186Q934.6104464748952 417.3094041957705 936.5579769498387 413.69543011855603Q938.505507424782 410.1015336751039 941.1155998138812 406.7485688367994Q943.7256922029807 403.39560399849483 946.7574149010883 400.50442473672325Q949.7891375991959 397.6132454749517 953.0417142686889 395.2842399585246Q956.2742133044197 392.95523444209755 959.5267899739127 391.46948954368713L959.5267899739127 391.46948954368713L961.7955625890528 394.4409793405079Q958.0410450755024 397.11130463089415 954.2062170269027 401.20714191840386Q950.3513113445405 405.3029792059136 947.2192004776213 410.1818442101531Q944.0670119769399 415.0406315806303 942.0592486007096 420.3009716263536Q940.0514852244793 425.56131167207684 940.0514852244793 430.5004095776033L940.0514852244793 430.5004095776033Q940.0514852244793 434.95764427283444 942.019093333185 437.38703795807305Q944.0067790756528 439.81643164331166 948.0223058281134 439.81643164331166L948.0223058281134 439.81643164331166Q951.1343390612702 439.81643164331166 954.1660617593778 438.55154071628664Q957.1977844574857 437.2866497892615 960.0889637192573 435.09818770917053Q962.9801429810287 432.90972562907956 965.6705459051772 429.8980805647342Q968.3609488293258 426.9065131341511 970.7501872470399 423.513393028322L970.7501872470399 423.513393028322Q968.702268603285 422.30873500258383 967.1562908035877 420.3009716263536Q965.6103130038904 418.2932082501233 964.5461984144885 415.7232711285486Q963.4820838250863 413.13325637321157 962.9600653472665 410.1818442101531Q962.4179692356844 407.21035441333237 962.4179692356844 404.09832118017545L962.4179692356844 404.09832118017545Q962.4179692356844 401.0063655807808 963.2009969524141 398.2557297553454Q963.9840246691439 395.48501629614765 965.3493037649804 393.41702001863047Q966.7346604945793 391.32894610735104 968.5617251669488 390.12428808161286Q970.4088674730807 388.91963005587473 972.5973295531718 388.91963005587473L972.5973295531718 388.91963005587473Q974.5649376618773 388.91963005587473 976.1109154615746 389.9435893777522Q977.6769708950343 390.96754869962956 978.721007850674 392.7745357382368Q979.785122440076 394.58152277684405 980.3472961854205 397.05107172960726Q980.9094699307649 399.52062068237046 980.9094699307649 402.3314894090928L980.9094699307649 402.3314894090928Q980.9094699307649 404.4597185878969 980.5681501568059 406.98950044194703Q980.2067527490843 409.5393599297594 979.5441908349284 412.1092970513342Q978.86155128701 414.6993118066712 977.9179025001819 417.209016026959Q976.9742537133537 419.69864261348454 975.6892851525662 421.68632835595247ZM966.0921762141855 404.09832118017545L966.0921762141855 404.09832118017545Q966.0921762141855 406.14623982393033 966.4535736219071 408.5555558754066Q966.7948933958661 410.94479429312065 967.5779211125961 413.2135669082608Q968.3609488293258 415.4622618896387 969.5455292213015 417.409792364582Q970.7501872470399 419.35732283952535 972.5170190181224 420.48167033021434L972.5170190181224 420.48167033021434Q973.7819099451475 418.0121213774511 974.6653258306889 415.4421842558764Q975.5487417162302 412.85216950053933 976.1510707290992 410.4629310828254Q976.7533997419683 408.053615031349 976.9943313471159 405.9856187538319Q977.2553405860259 403.8975448425524 977.2553405860259 402.3314894090928L977.2553405860259 402.3314894090928Q977.2553405860259 400.2233378640511 976.8939431783045 398.4565060929684Q976.5325457705829 396.6896743218858 975.9502943914762 395.38462812733616Q975.3479653786072 394.0795819327865 974.4645494930659 393.3367094835813Q973.5811336075245 392.59383703437607 972.5170190181224 392.59383703437607L972.5170190181224 392.59383703437607Q971.1115846547613 392.59383703437607 969.9069266290231 393.5575634549666Q968.702268603285 394.5012122417948 967.8590079852682 396.0873453090167Q967.0157473672515 397.6734783762386 966.5539617907187 399.7615522875181Q966.0921762141855 401.8496261987976 966.0921762141855 404.09832118017545ZM1028.4131514123728 421.68632835595247L1028.4131514123728 421.68632835595247Q1028.7143159188072 421.74656125723936 1028.9954027914796 421.74656125723936Q1029.2764896641515 421.74656125723936 1029.6178094381107 421.74656125723936L1029.6178094381107 421.74656125723936Q1031.6054951805786 421.74656125723936 1033.2317835153253 421.36508621575564Q1034.8379942163097 420.98361117427186 1036.2233509459084 420.12027292249286Q1037.588630041745 419.27701230447616 1038.8735986025322 417.9117332086396Q1040.1384895295573 416.5263764790407 1041.3431475552957 414.55876837033503L1041.3431475552957 414.55876837033503L1043.8729294093455 416.5263764790407Q1040.499886937279 421.32493094823104 1036.8859128600643 423.2323061556498Q1033.2920164166121 425.1396813630685 1029.2764896641515 425.1396813630685L1029.2764896641515 425.1396813630685Q1027.7907447657412 425.1396813630685 1026.6663972750525 424.85859449039623L1026.6663972750525 424.85859449039623Q1023.6145969431824 429.93823583225884 1020.1612439360664 433.5120546419487Q1016.7078909289504 437.0657958178762 1013.1139944854982 439.3345684330164Q1009.5000204082838 441.58326341439425 1005.9663568661184 442.6072227362717Q1002.4527709577156 443.63118205814914 999.4210482596078 443.63118205814914L999.4210482596078 443.63118205814914Q996.309015026451 443.63118205814914 993.6587673698269 442.5469898349848Q991.0085197132031 441.44271997805816 989.1011445057844 439.3948013343033Q987.1937692983657 437.34688269054845 986.149732342726 434.5360139638261Q985.0856177533238 431.70506760334143 985.0856177533238 428.1714040611762L985.0856177533238 428.1714040611762Q985.0856177533238 424.63774051901095 986.2099652440128 420.98361117427186Q987.3343127347017 417.3094041957705 989.281843209645 413.69543011855603Q991.2293736845885 410.1015336751039 993.8394660736877 406.7485688367994Q996.4495584627872 403.39560399849483 999.4812811608948 400.50442473672325Q1002.5130038590024 397.6132454749517 1005.7655805284954 395.2842399585246Q1009.0181571979884 392.95523444209755 1012.2506562337193 391.46948954368713L1012.2506562337193 391.46948954368713L1014.5194288488593 394.4409793405079Q1010.7849889690712 397.11130463089415 1006.930083286709 401.20714191840386Q1003.075177604347 405.3029792059136 999.9430667374278 410.1818442101531Q996.7908782367462 415.0406315806303 994.7831148605159 420.3009716263536Q992.7753514842858 425.56131167207684 992.7753514842858 430.5004095776033L992.7753514842858 430.5004095776033Q992.7753514842858 434.95764427283444 994.7630372267537 437.38703795807305Q996.7306453354594 439.81643164331166 1000.74617208792 439.81643164331166L1000.74617208792 439.81643164331166Q1003.8582053210768 439.81643164331166 1006.8899280191844 438.55154071628664Q1009.9216507172922 437.2866497892615 1012.832907612826 435.09818770917053Q1015.7240868745974 432.90972562907956 1018.3944121649837 429.8980805647342Q1021.0848150891323 426.9065131341511 1023.4740535068464 423.513393028322L1023.4740535068464 423.513393028322Q1021.4261348630915 422.30873500258383 1019.8801570633942 420.3009716263536Q1018.3341792636969 418.2932082501233 1017.2700646742948 415.7232711285486Q1016.2059500848928 413.13325637321157 1015.6839316070731 410.1818442101531Q1015.1619131292531 407.21035441333237 1015.1619131292531 404.09832118017545L1015.1619131292531 404.09832118017545Q1015.1619131292531 401.0063655807808 1015.9248632122207 398.2557297553454Q1016.7078909289504 395.48501629614765 1018.0731700247869 393.41702001863047Q1019.4585267543858 391.32894610735104 1021.2855914267553 390.12428808161286Q1023.1327337328872 388.91963005587473 1025.3211958129782 388.91963005587473L1025.3211958129782 388.91963005587473Q1027.2888039216837 388.91963005587473 1028.8548593551436 389.9435893777522Q1030.4008371548407 390.96754869962956 1031.4649517442426 392.7745357382368Q1032.5089886998826 394.58152277684405 1033.071162445227 397.05107172960726Q1033.6534138243337 399.52062068237046 1033.6534138243337 402.3314894090928L1033.6534138243337 402.3314894090928Q1033.6534138243337 404.4597185878969 1033.2920164166121 406.98950044194703Q1032.930619008891 409.5393599297594 1032.268057094735 412.1092970513342Q1031.6054951805786 414.6993118066712 1030.6417687599883 417.209016026959Q1029.69811997316 419.69864261348454 1028.4131514123728 421.68632835595247ZM1018.8160424739921 404.09832118017545L1018.8160424739921 404.09832118017545Q1018.8160424739921 406.14623982393033 1019.1774398817137 408.5555558754066Q1019.5187596556726 410.94479429312065 1020.3017873724026 413.2135669082608Q1021.0848150891323 415.4622618896387 1022.2894731148705 417.409792364582Q1023.4740535068464 419.35732283952535 1025.240885277929 420.48167033021434L1025.240885277929 420.48167033021434Q1026.525853838716 418.0121213774511 1027.3891920904953 415.4421842558764Q1028.2726079760369 412.85216950053933 1028.8749369889056 410.4629310828254Q1029.4772660017748 408.053615031349 1029.7181976069223 405.9856187538319Q1029.9792068458323 403.8975448425524 1029.9792068458323 402.3314894090928L1029.9792068458323 402.3314894090928Q1029.9792068458323 400.2233378640511 1029.6178094381107 398.4565060929684Q1029.2764896641515 396.6896743218858 1028.6741606512828 395.38462812733616Q1028.0718316384136 394.0795819327865 1027.188415752872 393.3367094835813Q1026.304999867331 392.59383703437607 1025.240885277929 392.59383703437607L1025.240885277929 392.59383703437607Q1023.8354509145678 392.59383703437607 1022.6307928888297 393.5575634549666Q1021.4261348630915 394.5012122417948 1020.5828742450748 396.0873453090167Q1019.739613627058 397.6734783762386 1019.277828050525 399.7615522875181Q1018.8160424739921 401.8496261987976 1018.8160424739921 404.09832118017545ZM1083.2652468509832 414.55876837033503L1085.8753392400827 416.5263764790407Q1084.8112246506807 418.07235427873803 1083.3656350197948 420.7226019353619Q1081.9200453889089 423.37284959198587 1080.0126701814902 426.44472755761814Q1078.1052949740715 429.51660552325046 1075.8164447251688 432.6888716576943Q1073.5275944762666 435.86113779213804 1070.8171139183555 438.4109972799505Q1068.0865557266825 440.9608567677629 1064.9142895922387 442.5670674687471Q1061.7420234577949 444.1933558034936 1058.1481270143427 444.1933558034936L1058.1481270143427 444.1933558034936Q1056.1604412718748 444.1933558034936 1054.393609500792 443.59102679062454Q1052.6267777297094 442.9886977777555 1051.3016539013975 441.7238068507304Q1049.9564524393231 440.4589159237053 1049.1734247225936 438.59169598381123Q1048.3903970058636 436.72447604391704 1048.3903970058636 434.17461655610464L1048.3903970058636 434.17461655610464Q1048.3903970058636 430.7212635489886 1049.7757537354628 426.9466684016757Q1051.141032831299 423.17207325436283 1052.988175137431 419.6384097121976Q1054.8152398098005 416.10474617003234 1056.6623821159324 413.1734116407362Q1058.4894467883018 410.24207711144 1059.3327074063186 408.4752453403574L1059.3327074063186 408.4752453403574Q1060.1759680243354 406.7084135692748 1060.1759680243354 405.4435226422497L1060.1759680243354 405.4435226422497Q1060.1759680243354 404.5199514891838 1059.5937166452286 403.8172343075032Q1058.9913876323594 403.1145171258226 1058.1079717468183 402.45195521166664Q1057.2245558612767 401.76931566374833 1056.2608294406864 401.0264432145431Q1055.317180653858 400.30364839910027 1054.6746963734645 399.23953380969823L1054.6746963734645 399.23953380969823Q1052.9078646023818 402.05040253642056 1051.0807999300123 404.96165943195444L1051.0807999300123 404.96165943195444Q1049.454511595266 407.43120838471765 1047.5471363878469 410.50308635035Q1045.6397611804282 413.55488668221994 1043.8729294093455 416.5263764790407L1043.8729294093455 416.5263764790407L1041.3431475552957 414.55876837033503L1056.4415281445472 390.90731579834267L1058.4894467883018 391.9714303877447Q1058.3489033519659 392.3930606967531 1058.027661211769 393.2965542160567Q1057.7064190715723 394.22012536912257 1057.7064190715723 395.2842399585246L1057.7064190715723 395.2842399585246Q1057.7064190715723 396.0672676752544 1057.9674283104823 396.7900624906973Q1058.20835991563 397.53293493990253 1058.9913876323594 398.1754192202962L1058.9913876323594 398.1754192202962Q1061.8022563590816 400.72527870810865 1063.4285446938284 402.09055780394516Q1065.0548330285746 403.4759145335441 1065.7977054777803 404.27901988403613Q1066.5405779269854 405.1022028682906 1066.7212766308458 405.62422134611046Q1066.8818977009446 406.14623982393033 1066.8818977009446 406.98950044194703L1066.8818977009446 406.98950044194703Q1066.8818977009446 407.852838693726 1066.6008108282722 409.03741908570186Q1066.3197239555998 410.24207711144 1065.6571620414438 411.94867598123574Q1064.9946001272879 413.63519721726914 1063.8300973690743 415.92404746617166Q1062.6655946108608 418.2128977150741 1060.898762839778 421.26469804694415L1060.898762839778 421.26469804694415Q1059.8346482503762 423.09176271931364 1058.8106889284986 424.9589826592078Q1057.7867296066215 426.8262025991019 1056.9836242561291 428.73357780652066Q1056.1604412718748 430.6409530139394 1055.6585004278172 432.54832822135813Q1055.176637217522 434.45570342877687 1055.176637217522 436.2225351998595L1055.176637217522 436.2225351998595Q1055.176637217522 437.5677366619338 1055.5581122590056 438.37084201242584Q1055.959664934252 439.1940249966803 1056.5820715808832 439.6156553056886Q1057.2245558612767 440.037285614697 1057.9674283104823 440.1778290510331Q1058.7103007596875 440.31837248736923 1059.4130179413678 440.31837248736923L1059.4130179413678 440.31837248736923Q1061.7420234577949 440.31837248736923 1064.0308737066975 438.93301575777036Q1066.3197239555998 437.5677366619338 1068.5483413032157 435.3792745818428Q1070.7769586508311 433.19081250175185 1072.8650325621106 430.40002140879176Q1074.9330288396277 427.6092303158317 1076.8404040470464 424.71805105406014Q1078.747779254465 421.8268717922886 1080.3740675892118 419.17662413566467Q1082.000355923958 416.5263764790407 1083.2652468509832 414.55876837033503L1083.2652468509832 414.55876837033503ZM1105.9328953686227 385.4662770487587L1105.9328953686227 385.4662770487587Q1105.5714979609015 386.10876132915234 1105.0093242155572 386.85163377835755Q1104.4471504702124 387.59450622756276 1103.9050543586304 388.53815501439095Q1103.3830358808104 389.5018814349815 1103.0015608393264 390.7667723620066Q1102.6000081640805 392.0316632890316 1102.6000081640805 393.79849506011425L1102.6000081640805 393.79849506011425Q1102.6000081640805 395.2842399585246 1103.342880613286 397.81402181257477Q1104.0857530624912 400.36388130038716 1104.9290136805075 403.65661323740477Q1105.7923519322867 406.9292675406601 1106.5151467477294 410.78417322302215Q1107.258019196935 414.619001271622 1107.258019196935 418.7148385591317L1107.258019196935 418.7148385591317Q1107.258019196935 424.71805105406014 1105.6518084959507 429.2957515518651Q1104.025520161204 433.8935296834324 1101.3351172370558 437.1461063529254L1101.3351172370558 437.1461063529254Q1106.8363888879267 434.17461655610464 1112.1368842011743 428.6331896377091Q1117.437379514422 423.09176271931364 1122.798107728957 414.55876837033503L1122.798107728957 414.55876837033503L1125.1873461466712 416.6669199153768Q1122.1556234485633 421.68632835595247 1118.3207953999636 426.5852709939543Q1114.4658897176014 431.4842136319561 1109.868111586034 435.4194298493674Q1105.2904110882291 439.3345684330164 1099.9899157749815 441.763962118255Q1094.7094980954957 444.1933558034936 1088.766518501854 444.1933558034936L1088.766518501854 444.1933558034936Q1083.4861008223684 444.1933558034936 1079.8520491113918 441.6836515832058Q1076.2179974004152 439.1940249966803 1075.354659148636 434.17461655610464L1075.354659148636 434.17461655610464L1077.9045186364483 433.67267571204707Q1077.9045186364483 434.09430602105544 1078.2859936779323 435.05803244164593Q1078.6875463531783 436.0016812284742 1079.530806971195 436.9252523815401Q1080.3740675892118 437.848823534606 1081.8196572200973 438.55154071628664Q1083.2652468509832 439.2542578979672 1085.3934760297875 439.2542578979672L1085.3934760297875 439.2542578979672Q1088.2043447565097 439.2542578979672 1090.3928068366008 437.9492117034175Q1092.5812689166914 436.64416550886784 1094.2075572514382 434.5360139638261Q1095.8338455861845 432.407784785022 1096.9581930768736 429.69730422711115Q1098.0825405675628 426.966746035438 1098.7651801154807 424.0755667736665Q1099.4277420296366 421.1843875118949 1099.708828902309 418.43375168645946Q1099.9899157749815 415.683115861024 1099.9899157749815 413.4143432458838L1099.9899157749815 413.4143432458838Q1099.9899157749815 411.16564826450593 1099.829294704883 408.4150124390705Q1099.6485960010223 405.66437661363506 1099.4277420296366 403.1546723933472Q1099.226965692014 400.6449681730594 1099.046266988153 398.77774823316525Q1098.8655682842923 396.9105282932711 1098.8655682842923 396.34835454792665L1098.8655682842923 396.34835454792665L1098.8655682842923 396.20781111159056Q1097.9419971312263 397.19161516594335 1096.6771062042012 399.09899037336214Q1095.412215277176 401.0063655807808 1093.9666256462906 403.25506056215875Q1092.5210360154047 405.5238331772989 1091.0754463845192 407.852838693726Q1089.6298567536332 410.1818442101531 1088.4452763616573 412.0892194175718Q1087.2807736034438 413.99659462499056 1086.557978788001 415.22133028449105Q1085.8151063387959 416.4661435777538 1085.8151063387959 416.5263764790407L1085.8151063387959 416.5263764790407L1083.2652468509832 414.55876837033503Q1083.3455573860324 414.47845783528584 1085.032078622066 411.50696803846506Q1086.7185998580994 408.5555558754066 1089.5093909510592 403.9979330113639Q1092.3001820440195 399.44031014732127 1095.8338455861845 393.89888322892574Q1099.3675091283499 388.35745631053027 1103.101949008138 383.13727153233157L1103.101949008138 383.13727153233157L1105.9328953686227 385.4662770487587ZM1329.39695914305 340.5726879562502L1329.39695914305 340.5726879562502Q1331.4448777868051 340.5726879562502 1333.3924082617486 341.2553275041685Q1335.3198611029297 341.9178894183245 1336.8457612688644 343.1627027115872Q1338.3716614347995 344.3874383710877 1339.275154954103 346.19442540969493Q1340.198726107169 347.9813348145398 1340.198726107169 350.25010742968004L1340.198726107169 350.25010742968004Q1340.198726107169 354.627031589862 1337.3677797466844 360.2086137757821Q1334.5569110199622 365.7701183279399 1330.039443423444 373.25907572127875L1330.039443423444 373.25907572127875Q1325.1605784192043 381.22989632491283 1320.8639647940718 389.18063929478467Q1316.5472735351764 397.11130463089415 1312.852988922913 404.49987385542147Q1309.1386266768868 411.8683654461865 1306.0667487112546 418.39359641893486Q1302.9948707456224 424.9188273916832 1300.7461757642445 430.07877926859493L1300.7461757642445 430.07877926859493Q1303.5570444909667 430.44017667631636 1306.3879908514514 430.6409530139394Q1309.218937211936 430.86180698532473 1311.4676321933139 430.7814964502755L1311.4676321933139 430.7814964502755L1311.6081756296503 434.45570342877687Q1311.1263124193551 434.45570342877687 1307.9138910173865 434.4155481612523Q1304.7014696154183 434.39547052749 1299.180120330785 433.6124428107602L1299.180120330785 433.6124428107602Q1296.991658250694 438.6920841526227 1295.8271554924804 441.52303051310736Q1294.6626527342669 444.33389923982975 1294.6626527342669 444.47444267616584L1294.6626527342669 444.47444267616584L1286.2702018216241 441.86435028706654L1290.5065825454703 432.207008447399Q1285.7682609775666 431.14289385799697 1280.548076199368 429.7374594946358Q1275.3278914211696 428.31194749751234 1269.92700793911 426.5250380926674Q1264.5261244570506 424.71805105406014 1259.1653962425157 422.44927843892Q1253.8046680279813 420.2005834575421 1248.8655701224548 417.51018053339357L1248.8655701224548 417.51018053339357Q1244.2677919908874 422.8106758466414 1238.9070637763525 427.93047245602855Q1233.5463355618176 433.0502690654157 1227.4025796305532 437.1059510854008Q1221.2588236992888 441.16163310538593 1214.3721953188187 443.67133732567373Q1207.5056445721111 446.1810415459616 1199.8761437424364 446.1810415459616L1199.8761437424364 446.1810415459616Q1193.089903530778 446.1810415459616 1186.3638962204068 444.153200535969Q1179.6178112762732 442.1454371597387 1174.2771606955007 438.31060911113894Q1168.9565877484906 434.45570342877687 1165.6437781777108 428.9142765103814Q1162.3309686069306 423.37284959198587 1162.3309686069306 416.3256001414177L1162.3309686069306 416.3256001414177Q1162.3309686069306 410.74401795549755 1164.3989648844477 406.5076372316517Q1166.4870387957271 402.2712565078059 1170.1210905067041 399.44031014732127Q1173.7551422176807 396.6294414205989 1178.6540848556829 395.1838517897131Q1183.573105127447 393.73826215882735 1189.2149202146538 393.73826215882735L1189.2149202146538 393.73826215882735Q1193.5316114735488 393.73826215882735 1198.1494672388785 394.58152277684405Q1202.7673230042083 395.42478339486075 1207.14424716439 397.3923915035664Q1211.5211713245717 399.3800772460343 1215.3961546406963 402.6326539155273Q1219.2912155905829 405.86515295125804 1222.0418514160183 410.66370742044836L1222.0418514160183 410.66370742044836L1218.9298181828617 412.65139316291635Q1218.8695852815745 412.5108497265802 1218.1267128323693 411.5471233059897Q1217.3838403831642 410.60347451916147 1215.9382507522787 409.2181177895626Q1214.4926611213928 407.852838693726 1212.2238885062525 406.2867832602664Q1209.9751935248746 404.7408054605691 1206.8230050241932 403.4357592660195Q1203.6908941572738 402.13071307146976 1199.5549016022396 401.2472971859285Q1195.4189090472055 400.36388130038716 1190.1987242690066 400.36388130038716L1190.1987242690066 400.36388130038716Q1184.9183065895209 400.36388130038716 1180.9630127383475 402.1708683389944Q1177.0077188871737 403.9577777438393 1174.35747123055 406.7485688367994Q1171.707223573926 409.5393599297594 1170.402177379376 412.9927129368755Q1169.0971311848266 416.4661435777538 1169.0971311848266 419.69864261348454L1169.0971311848266 419.69864261348454Q1169.0971311848266 423.513393028322 1170.442332646901 426.6655815290035Q1171.7875341089753 429.7976923959227 1174.0763843578775 432.3475518837351Q1176.3652346067802 434.87733373778525 1179.4371125724124 436.74455367767933Q1182.5089905380446 438.61177361757353 1185.9422659113984 439.89674217836085Q1189.3554636509898 441.16163310538593 1192.9292824606796 441.8041173857796Q1196.4830236366074 442.426524032411 1199.8761437424364 442.426524032411L1199.8761437424364 442.426524032411Q1206.8631602917176 442.426524032411 1213.2880030956544 440.1376737835085Q1219.7128458995912 437.848823534606 1225.4349715218477 434.07422838729315Q1231.1370195103414 430.29963323998027 1236.196583218442 425.50107877078995Q1241.2360692927796 420.7025243015996 1245.552760551675 415.683115861024L1245.552760551675 415.683115861024Q1240.734128448722 412.79193659925244 1236.678446428737 409.43897176094794Q1232.6227644087517 406.0860069226434 1229.6713522456935 402.2311012402813Q1226.6998624488724 398.39627319168153 1225.0334188466013 393.97919376397493Q1223.3870528780926 389.5621143362684 1223.3870528780926 384.623016430742L1223.3870528780926 384.623016430742Q1223.3870528780926 380.5271791432323 1224.8928754102653 376.9332826997801Q1226.4187755762005 373.33938625632794 1229.0690232328243 370.6088280646548Q1231.6991932556862 367.89834750674396 1235.3533226004251 366.31221443952205Q1238.9873743114017 364.72608137230014 1243.1434445001983 364.72608137230014L1243.1434445001983 364.72608137230014Q1247.8014555330528 364.72608137230014 1251.9575257218494 366.17167100318596Q1256.1336735444083 367.6172606340717 1259.8681134241965 370.1269648543595Q1263.622630937747 372.6165914408851 1266.895285241002 376.0900220817634Q1270.167939544258 379.54337508887943 1273.0791964397918 383.55890184133995L1273.0791964397918 383.55890184133995Q1280.9697065083765 374.74482061968916 1288.8401389431992 366.93462108615347Q1296.7105713780215 359.1444991863801 1303.9786747999751 353.2818301277877Q1311.2668558556911 347.41916106919535 1317.7117762933904 344.00596332960396Q1324.1767743648516 340.5726879562502 1329.39695914305 340.5726879562502ZM1275.2676585198824 386.81147851083296L1275.2676585198824 386.81147851083296Q1278.5804680906626 391.8911198526955 1281.331103916098 397.3321586022795Q1284.0817397415335 402.7731973518635 1286.310357089149 407.9933821300621Q1288.5389744367644 413.2135669082608 1290.2656509403228 417.9117332086396Q1291.9923274438806 422.58982187525606 1293.2572183709058 426.20379595247056L1293.2572183709058 426.20379595247056Q1301.509125847212 408.19415846768516 1310.9054584479695 390.90731579834267Q1320.301791048727 373.6204731290002 1332.0070515321495 356.73518313490376L1332.0070515321495 356.73518313490376Q1333.9144267395682 353.9243144081814 1334.7376097238225 352.0570944682873Q1335.540715074315 350.1697968946308 1335.540715074315 348.8446730663189L1335.540715074315 348.8446730663189Q1335.540715074315 346.57590045117865 1333.6333398668962 345.4113976929651Q1331.7259646594775 344.24689493475154 1329.256415706714 344.24689493475154L1329.256415706714 344.24689493475154Q1321.4261385394161 344.24689493475154 1307.9138910173865 354.9482737300588Q1294.3815658615945 365.6295748916038 1275.2676585198824 386.81147851083296ZM1229.8118956820294 388.0161365365711L1229.8118956820294 388.0161365365711Q1229.8118956820294 391.75057641635937 1231.2173300453906 395.1035412546639Q1232.6227644087517 398.4565060929684 1235.0923133615152 401.5283840586007Q1237.5618623142782 404.600262024233 1240.9549824201076 407.31074258214386Q1244.3481025259366 410.041300773817 1248.3033963771104 412.430539191531L1248.3033963771104 412.430539191531Q1253.5838140565957 406.0056963875942 1259.105163341229 399.52062068237046Q1264.6064349920998 393.01546734338444 1270.2482500793071 386.6709350744968L1270.2482500793071 386.6709350744968Q1267.7787011265436 383.4183584050038 1265.1284534699198 380.62756731204377Q1262.478205813296 377.85685385284603 1259.587026551524 375.80893520909115Q1256.6958472897527 373.7610165653363 1253.5838140565957 372.6165914408851Q1250.491858457201 371.4922439501961 1247.1589712526588 371.4922439501961L1247.1589712526588 371.4922439501961Q1243.4245313728707 371.4922439501961 1240.2522652384268 372.7571348772212Q1237.079999103983 374.04210343800855 1234.750993587556 376.2506431518618Q1232.421988071129 378.4792604994774 1231.1169418765794 381.49090556382276Q1229.8118956820294 384.48247299440584 1229.8118956820294 388.0161365365711ZM1290.1451851377487 428.2517145962254L1290.1451851377487 428.2517145962254Q1289.161381083396 425.0593708280193 1287.5150151148873 420.54190323150124Q1285.8485715126162 416.02443563498315 1283.6199541650003 410.8444061243091Q1281.3913368173849 405.66437661363506 1278.620623358187 400.2233378640511Q1275.8298322652272 394.78229911446704 1272.496945060685 389.8432012089406L1272.496945060685 389.8432012089406Q1267.6381576902077 395.34447285981156 1262.4179729120087 401.4279958897892Q1257.1977881338103 407.4914412860046 1251.535895412841 414.33791439894975L1251.535895412841 414.33791439894975Q1256.4749933183675 417.0885502243852 1261.8758768004268 419.31716757200076Q1267.276760282486 421.5457849196163 1272.3965568918734 423.2724614231744Q1277.5163535012603 424.99913792673243 1282.13420926659 426.26402885375745Q1286.7721426656817 427.5489974145448 1290.1451851377487 428.2517145962254ZM1341.6041604705301 412.37030629024406L1331.8062751945263 435.86113779213804Q1334.0549701759046 437.6279695632207 1337.7894100556928 437.6279695632207L1337.7894100556928 437.6279695632207Q1341.8250144419158 437.6279695632207 1345.3787556178431 436.3630786361956Q1348.952574427533 435.09818770917053 1352.06460766069 433.0101137978911Q1355.1565632600846 430.9220398866116 1357.7666556491836 428.39225803256153Q1360.376748038283 425.8423985447491 1362.4648219495625 423.2724614231744Q1364.552895860842 420.7025243015996 1366.139028928064 418.39359641893486Q1367.7251619952858 416.10474617003234 1368.7089660496385 414.55876837033503L1368.7089660496385 414.55876837033503L1372.6642599008123 414.55876837033503Q1371.6804558464596 416.2452896063685 1369.9537793429013 418.8955372629924Q1368.2271028393434 421.5457849196163 1365.8579420553915 424.49719708267486Q1363.48878127144 427.4686868794956 1360.517291474619 430.46025431007865Q1357.5658793115608 433.471899374424 1353.992060501871 435.86113779213804Q1350.4383193259432 438.27045384361435 1346.4027149397202 439.79635400954936Q1342.38718818726 441.3021765417221 1337.869720590742 441.3021765417221L1337.869720590742 441.3021765417221Q1335.902112482036 441.3021765417221 1334.0148149083798 440.8403909651891Q1332.147594968486 440.3786053886561 1330.3807631974032 439.3948013343033L1330.3807631974032 439.3948013343033Q1328.0517576809762 445.11692695655955 1325.8432179671227 450.61819860743043Q1323.6146006195072 456.1194702583013 1321.606837243277 461.0585681638277Q1319.5789962332842 466.0177437031165 1317.8924749972507 470.1738138919131Q1316.2059537612176 474.32988408070975 1314.92098520043 477.401762046342Q1313.656094273405 480.4736400119743 1312.9533770917246 482.28062705058153Q1312.2506599100439 484.0876140891888 1312.1703493749947 484.14784699047567L1312.1703493749947 484.14784699047567L1304.761702516705 480.4736400119743Q1308.3555989601573 472.00087856428263 1311.2267005881663 464.95362911371444Q1314.0777245824133 457.88630202938396 1316.507118267652 451.74254609811936Q1318.956589586653 445.6188678006171 1321.1048963992193 440.21798431855774Q1323.2532032117856 434.8171008364983 1325.4416652918767 429.7374594946358L1325.4416652918767 429.7374594946358Q1324.3173178011875 428.1111711598893 1323.795299323368 426.5451157264297Q1323.2532032117856 424.99913792673243 1323.1126597754496 424.0153338723796L1323.1126597754496 424.0153338723796Q1322.9721163391132 422.3890455376331 1323.9960756609908 421.28477568070645Q1325.0200349828683 420.2005834575421 1326.6463233176146 420.2005834575421L1326.6463233176146 420.2005834575421Q1327.991524779689 420.2005834575421 1329.115872270378 421.12415461060795L1329.115872270378 421.12415461060795Q1331.22402381542 416.02443563498315 1332.890467417691 412.1896075863834Q1334.5569110199622 408.3347019040213 1335.6812585106509 405.72460951492195L1335.6812585106509 405.72460951492195Q1336.946149437676 402.6928868168143 1337.9299534920287 400.44419183543636L1337.9299534920287 400.44419183543636Q1344.0737094232936 385.96821789281626 1349.334049469017 375.4073825338451Q1354.5943895147398 364.8666248086363 1359.0516242099711 357.478055584109Q1363.48878127144 350.1095639933439 1367.1629882499415 345.55194112930127Q1370.8371952284429 340.9943182652585 1373.8287626590259 338.4645364112084Q1376.8404077233713 335.91467692339603 1379.2296461410851 335.0312610378547Q1381.6389621925614 334.14784515231344 1383.54633739998 334.14784515231344L1383.54633739998 334.14784515231344Q1386.6382929993747 334.14784515231344 1388.786599811941 335.53320188191225Q1390.9549842582696 336.8984809777489 1391.236071130942 340.2313681822911L1391.236071130942 340.2313681822911Q1391.5171580036144 343.4638672180218 1390.0715683727285 348.4230427573105Q1388.6259787418426 353.3621406628369 1386.1162745215547 358.90356758123244Q1383.6065703012673 364.4449944996279 1380.293760730487 370.08680958683493Q1376.9809511597073 375.72862467404195 1373.507520518829 380.4669462419453L1373.507520518829 380.4669462419453Q1366.9421342785558 389.36133799864535 1361.6215613315458 395.2039294234754Q1356.3009883845357 401.0665984820678 1352.2653839983127 404.6604949255199Q1348.2498572458521 408.2744690027344 1345.559454321704 410.0011455062924Q1342.8891290313177 411.7278220098504 1341.6041604705301 412.37030629024406L1341.6041604705301 412.37030629024406ZM1386.8591469707603 341.2754051379308L1386.8591469707603 341.2754051379308Q1386.7788364357107 340.09082474595493 1386.317050859178 339.20740886041364Q1385.8753429164071 338.32399297487234 1384.449830919284 338.32399297487234L1384.449830919284 338.32399297487234Q1383.6065703012673 338.32399297487234 1382.261368839193 338.70546801635606Q1380.9161673771187 339.08694305783985 1379.1292579722735 340.37191161862717Q1377.3222709336665 341.63680254565224 1375.0735759522886 344.10635149841545Q1372.8048033371483 346.57590045117865 1370.014012244188 350.75204827373756Q1367.2232211512282 354.9081184625342 1363.9505668479728 361.0518743937988Q1360.6779125447174 367.19563032506335 1356.9233950311668 375.86916811037804L1356.9233950311668 375.86916811037804Q1354.4538460784038 381.370439761249 1351.2012694089108 389.24087219607156Q1347.9687703731802 397.11130463089415 1344.0737094232936 406.2867832602664L1344.0737094232936 406.2867832602664Q1347.4065966278354 403.9577777438393 1351.0406483388124 400.4642694691987Q1354.674700049789 396.97076119455807 1358.3689846620528 392.7745357382368Q1362.0833469080785 388.57831028191555 1365.6772433515307 383.8399887140122Q1369.2711397949834 379.12174477987105 1372.523716464476 374.2428797756316Q1375.776293133969 369.3840924051544 1378.48677369188 364.58553793596406Q1381.217331883553 359.78698346677373 1383.144784724734 355.4301369403541Q1385.0923151996776 351.09336804769674 1386.0761192540303 347.45931633671995Q1387.059923308383 343.8252646257432 1386.8591469707603 341.2754051379308ZM1410.6511429790885 414.55876837033503L1413.261235368188 416.5263764790407Q1412.197120778786 418.07235427873803 1410.7515311479 420.7226019353619Q1409.3059415170146 423.37284959198587 1407.3985663095955 426.44472755761814Q1405.4911911021768 429.51660552325046 1403.2023408532746 432.6888716576943Q1400.8934129706095 435.86113779213804 1398.1829324126988 438.4109972799505Q1395.4724518547878 440.9608567677629 1392.300185720344 442.5670674687471Q1389.1078419521382 444.1933558034936 1385.513945508686 444.1933558034936L1385.513945508686 444.1933558034936Q1383.54633739998 444.1933558034936 1381.7795056288974 443.59102679062454Q1380.0126738578151 442.9886977777555 1378.6674723957408 441.7238068507304Q1377.3222709336665 440.4589159237053 1376.559320850699 438.59169598381123Q1375.776293133969 436.72447604391704 1375.776293133969 434.17461655610464L1375.776293133969 434.17461655610464Q1375.776293133969 430.7212635489886 1377.1415722298057 426.9466684016757Q1378.5269289594044 423.17207325436283 1380.3539936317743 419.6384097121976Q1382.2011359379062 416.10474617003234 1384.0282006102752 413.1734116407362Q1385.8753429164071 410.24207711144 1386.718603534424 408.4752453403574L1386.718603534424 408.4752453403574Q1387.5618641524406 406.7084135692748 1387.5618641524406 405.4435226422497L1387.5618641524406 405.4435226422497Q1387.5618641524406 404.5199514891838 1386.9595351395715 403.8172343075032Q1386.3572061267027 403.1145171258226 1385.4737902411612 402.45195521166664Q1384.59037435562 401.76931566374833 1383.6467255687917 401.0264432145431Q1382.682999148201 400.30364839910027 1382.0605925015698 399.23953380969823L1382.0605925015698 399.23953380969823Q1380.293760730487 402.05040253642056 1378.4466184243552 404.96165943195444L1378.4466184243552 404.96165943195444Q1376.8404077233713 407.43120838471765 1374.9330325159526 410.50308635035Q1373.0256573085335 413.55488668221994 1371.2588255374512 416.5263764790407L1371.2588255374512 416.5263764790407L1368.7089660496385 414.55876837033503L1383.8274242726525 390.90731579834267L1385.8753429164071 391.9714303877447Q1385.7347994800712 392.3930606967531 1385.4135573398744 393.2965542160567Q1385.0923151996776 394.22012536912257 1385.0923151996776 395.2842399585246L1385.0923151996776 395.2842399585246Q1385.0923151996776 396.0672676752544 1385.3332468048252 396.7900624906973Q1385.5942560437352 397.53293493990253 1386.3572061267027 398.1754192202962L1386.3572061267027 398.1754192202962Q1389.188152487187 400.72527870810865 1390.8144408219337 402.09055780394516Q1392.4407291566804 403.4759145335441 1393.1635239721231 404.27901988403613Q1393.9063964213283 405.1022028682906 1394.087095125189 405.62422134611046Q1394.2677938290499 406.14623982393033 1394.2677938290499 406.98950044194703L1394.2677938290499 406.98950044194703Q1394.2677938290499 407.852838693726 1393.9867069563775 409.03741908570186Q1393.705620083705 410.24207711144 1393.0229805357872 411.94867598123574Q1392.3604186216312 413.63519721726914 1391.1959158634177 415.92404746617166Q1390.0314131052037 418.2128977150741 1388.2645813341214 421.26469804694415L1388.2645813341214 421.26469804694415Q1387.200466744719 423.09176271931364 1386.176507422842 424.9589826592078Q1385.1525481009644 426.8262025991019 1384.3494427504725 428.73357780652066Q1383.54633739998 430.6409530139394 1383.0443965559225 432.54832822135813Q1382.542455711865 434.45570342877687 1382.542455711865 436.2225351998595L1382.542455711865 436.2225351998595Q1382.542455711865 437.5677366619338 1382.944008387111 438.37084201242584Q1383.325483428595 439.1940249966803 1383.9679677089885 439.6156553056886Q1384.59037435562 440.037285614697 1385.3332468048252 440.1778290510331Q1386.0761192540303 440.31837248736923 1386.7788364357107 440.31837248736923L1386.7788364357107 440.31837248736923Q1389.1078419521382 440.31837248736923 1391.4167698348028 438.93301575777036Q1393.705620083705 437.5677366619338 1395.934237431321 435.3792745818428Q1398.142777145174 433.19081250175185 1400.2308510564535 430.40002140879176Q1402.318924967733 427.6092303158317 1404.2263001751517 424.71805105406014Q1406.1336753825703 421.8268717922886 1407.7398860835547 419.17662413566467Q1409.3661744183014 416.5263764790407 1410.6511429790885 414.55876837033503L1410.6511429790885 414.55876837033503ZM1442.3336490560023 378.27848416185435L1442.3336490560023 378.27848416185435Q1442.3336490560023 379.6839185252156 1441.6309318743215 381.20981869115053Q1440.9282146926407 382.71564122332325 1439.8239448357144 383.9202992490614Q1438.7397526125496 385.12495727479956 1437.3945511504758 385.887907357767Q1436.0493496884014 386.6709350744968 1434.704148226327 386.6709350744968L1434.704148226327 386.6709350744968Q1433.5195678343512 386.6709350744968 1432.8770835539576 385.7875191889555Q1432.2345992735636 384.9041033034142 1432.2345992735636 383.63921237638914L1432.2345992735636 383.63921237638914Q1432.2345992735636 382.5148648857002 1432.656229582572 380.9488094522406Q1433.0979375253428 379.4028316525433 1433.9411981433595 378.0174749229445Q1434.7844587613763 376.65219582710785 1435.9891167871142 375.66839177275506Q1437.1736971790901 374.6645100846399 1438.7397526125496 374.6645100846399L1438.7397526125496 374.6645100846399Q1440.2254975109604 374.6645100846399 1441.2695344666 375.80893520909115Q1442.3336490560023 376.9332826997801 1442.3336490560023 378.27848416185435ZM1426.8738710590292 392.95523444209755L1429.1426436741694 393.93903849645034Q1428.219072521103 395.7861808025822 1426.5526289188324 398.77774823316525Q1424.9062629503233 401.76931566374833 1422.9988877429046 405.34313447343817Q1421.091512535486 408.89687564936577 1419.103826793018 412.83209186677703Q1417.1362186843126 416.74723045042606 1415.5500856170902 420.4415150626897Q1413.9639525498687 424.1558773087157 1412.980148495516 427.4084539782087Q1411.9762668074004 430.6409530139394 1411.9762668074004 432.90972562907956L1411.9762668074004 432.90972562907956Q1411.9762668074004 434.95764427283444 1412.8396050591796 435.70051672203965Q1413.6828656771963 436.44338917124486 1415.2288434768934 436.44338917124486L1415.2288434768934 436.44338917124486Q1418.1200227386653 436.44338917124486 1420.8706585641007 434.5360139638261Q1423.6212943895362 432.6286387564073 1426.3518525812092 429.55676079077506Q1429.0623331391198 426.4848828251428 1431.6724255282193 422.52958897396917Q1434.2825179173187 418.5742951227956 1436.8926103064182 414.55876837033503L1436.8926103064182 414.55876837033503L1439.4424697942304 416.5263764790407Q1437.3945511504758 420.2005834575421 1434.8246140289011 424.35665364633866Q1432.2345992735636 428.5328014688976 1429.0623331391198 432.08654264482516Q1425.8900670046764 435.660361454515 1422.0753165898386 437.9893669709421Q1418.2605661750013 440.31837248736923 1413.743098578483 440.31837248736923L1413.743098578483 440.31837248736923Q1409.5067178546374 440.31837248736923 1407.2580228732595 437.7685129995568Q1404.9892502581192 435.2387311455067 1404.9892502581192 431.20312675928386L1404.9892502581192 431.20312675928386Q1404.9892502581192 426.4848828251428 1407.1777123382103 421.32493094823104Q1409.3661744183014 416.18505670508154 1412.6589063553188 411.12549299698134Q1415.9315606585742 406.0860069226434 1419.7864663409364 401.4279958897892Q1423.6212943895362 396.769984856935 1426.8738710590292 392.95523444209755L1426.8738710590292 392.95523444209755ZM1476.7065580570643 398.0348757839601L1476.7065580570643 398.0348757839601Q1477.1281883660722 396.9105282932711 1477.1281883660722 395.62555973248374L1477.1281883660722 395.62555973248374Q1477.1281883660722 393.37686475110587 1475.3412789612275 392.0718185565562Q1473.53429192262 390.7667723620066 1469.6593086064959 390.7667723620066L1469.6593086064959 390.7667723620066Q1466.4669648382896 390.7667723620066 1463.2545434363215 392.13205145784315Q1460.0621996681152 393.517408187442 1457.0907098712942 395.9267242389183Q1454.1192200744736 398.3159626566323 1451.549282952899 401.62877222741224Q1448.9793458313243 404.96165943195444 1447.0920482576676 408.8366427480789Q1445.2248283177737 412.71162606420324 1444.1406360946094 417.0483949568606Q1443.0363662376826 421.40524148328024 1443.0363662376826 425.7821656434622L1443.0363662376826 425.7821656434622Q1443.0363662376826 429.2957515518651 1443.8193939544126 431.7653005046283Q1444.602421671142 434.2549270911539 1446.0078560345032 435.80090489085114Q1447.4132903978648 437.34688269054845 1449.4009761403327 438.0295222384667Q1451.3685842490381 438.6920841526227 1453.8381332018012 438.6920841526227L1453.8381332018012 438.6920841526227Q1458.716998206041 438.6920841526227 1463.2946987038458 436.50362207253175Q1467.8924768354132 434.3151599924408 1472.0083917566853 430.82165171780014Q1476.1443843117195 427.3281434431595 1479.63789258636 423.03152981802674Q1483.1314008610007 418.7148385591317 1485.8218037851493 414.55876837033503L1485.8218037851493 414.55876837033503L1488.4318961742488 416.5263764790407Q1484.6171457594114 422.95121928297755 1480.300454500516 427.78992901969247Q1476.0038408753835 432.6286387564073 1471.4863732788654 435.86113779213804Q1466.9689056823472 439.11371446163105 1462.310894649493 440.74000279637755Q1457.652883616639 442.3662911311241 1453.1956489214076 442.3662911311241L1453.1956489214076 442.3662911311241Q1449.6820630130046 442.3662911311241 1446.4696416110364 441.3021765417221Q1443.2572202090678 440.23806195232004 1440.8077488900672 438.08975513975366Q1438.3783552048285 435.9414483271873 1436.9327655739426 432.54832822135813Q1435.4871759430566 429.155208115529 1435.4871759430566 424.49719708267486L1435.4871759430566 424.49719708267486Q1435.4871759430566 418.9959254318039 1437.073309010279 414.0969827938021Q1438.659442077501 409.177962522038 1441.3096897341247 405.02189233324134Q1443.9599373907486 400.86582214444473 1447.4132903978648 397.51285730614023Q1450.8666434049806 394.1598924678357 1454.661316186056 391.83088695140856Q1458.4359113333685 389.5018814349815 1462.2707393819687 388.2570681417187Q1466.1256450643305 387.0323324822183 1469.5187651701594 387.0323324822183L1469.5187651701594 387.0323324822183Q1472.9721181772757 387.0323324822183 1475.1605802573667 387.9759812690465Q1477.3490423374578 388.91963005587473 1478.613933264483 390.264831517949Q1479.8788241915076 391.6100329800233 1480.3406097680408 393.09577787843364Q1480.8023953445736 394.58152277684405 1480.8023953445736 395.62555973248374L1480.8023953445736 395.62555973248374Q1480.8023953445736 397.3321586022795 1480.300454500516 399.23953380969823Q1479.8185912902209 401.14690901711697 1478.9351754046793 402.7330420843389Q1478.0517595191382 404.3191751515608 1476.7467133245887 405.3832897409628Q1475.4416671300387 406.42732669660256 1473.8956893303416 406.42732669660256L1473.8956893303416 406.42732669660256Q1472.3296338968821 406.42732669660256 1471.205286406193 405.4033673747251Q1470.0809389155042 404.3794080528477 1470.0809389155042 402.83343025315037L1470.0809389155042 402.83343025315037Q1470.0809389155042 402.7731973518635 1470.1813270843159 401.99016963513367Q1470.281715253127 401.20714191840386 1470.8438889984718 400.32372603286257Q1471.4261403775786 399.44031014732127 1472.590643135792 398.73759296564066Q1473.7551458940056 398.0348757839601 1475.863297439047 398.0348757839601L1475.863297439047 398.0348757839601L1476.7065580570643 398.0348757839601ZM1539.6700175356445 392.95523444209755L1541.9387901507848 393.93903849645034Q1541.0152189977189 395.7861808025822 1539.3487753954478 398.73759296564066Q1537.702409426939 401.70908276246143 1535.7950342195204 405.262823938389Q1533.8876590121017 408.8366427480789 1531.9401285371582 412.71162606420324Q1529.9925980622147 416.6066870140899 1528.4064649949933 420.3009716263536Q1526.820331927771 424.0153338723796 1525.7963726058938 427.2879881756349Q1524.7724132840162 430.5807201126525 1524.7724132840162 432.82941509403037L1524.7724132840162 432.82941509403037Q1524.7724132840162 435.09818770917053 1525.6558291695574 435.76074962332655Q1526.539245055099 436.44338917124486 1527.9647570522225 436.44338917124486L1527.9647570522225 436.44338917124486Q1529.9925980622147 436.44338917124486 1532.1609825085438 435.2387311455067Q1534.30928932111 434.03407311976855 1536.3973632323896 432.1266979123498Q1538.4653595099066 430.219322704931 1540.4530452523745 427.83008428721706Q1542.42065336108 425.42076823574075 1544.1473298646383 422.99137455050214Q1545.8940840019586 420.54190323150124 1547.2995183653197 418.3333635176479Q1548.7049527286808 416.10474617003234 1549.6887567830336 414.55876837033503L1549.6887567830336 414.55876837033503L1552.2386162708463 416.5263764790407Q1551.033958245108 418.7951490941809 1549.4076699103616 421.40524148328024Q1547.781381575615 424.0153338723796 1545.8539287344338 426.6655815290035Q1543.9063982594907 429.2957515518651 1541.6577032781124 431.7653005046283Q1539.3889306629726 434.2549270911539 1536.8792264426847 436.14222466481027Q1534.3695222223969 438.04959987222907 1531.6188863969614 439.1940249966803Q1528.868250571526 440.31837248736923 1525.9770713097546 440.31837248736923L1525.9770713097546 440.31837248736923Q1521.7406905859089 440.31837248736923 1519.773082477203 437.7685129995568Q1517.785396734735 435.2387311455067 1517.785396734735 431.20312675928386L1517.785396734735 431.20312675928386Q1517.785396734735 430.9220398866116 1517.8255520022594 429.97839109978344Q1517.8657072697843 429.0146646791929 1518.0062507061202 428.4524909338484L1518.0062507061202 428.4524909338484Q1514.4725871639553 432.90972562907956 1511.2601657619866 435.80090489085114Q1508.047744360018 438.6920841526227 1505.0561769294354 440.3786053886561Q1502.04453186509 442.0852042584518 1499.2537407721297 442.74776617260784Q1496.4830273129319 443.43040572052615 1493.9331678251197 443.43040572052615L1493.9331678251197 443.43040572052615Q1491.242764900971 443.43040572052615 1488.8936817507815 442.5469898349848Q1486.52452096683 441.6635739494435 1484.7175339282226 439.95697507964775Q1482.930624523378 438.27045384361435 1481.9066652015003 435.80090489085114Q1480.8827058796228 433.33135593808794 1480.8827058796228 430.07877926859493L1480.8827058796228 430.07877926859493Q1480.8827058796228 426.0632525161344 1482.669615284468 420.86314537169807Q1484.476602323075 415.683115861024 1489.05430282088 409.6799033660955L1489.05430282088 409.6799033660955Q1492.949363770767 404.5199514891838 1497.1455892270883 401.0063655807808Q1501.3418146834092 397.4727020386156 1505.3974967033942 395.3243952260492Q1509.4531787233796 393.15601077972053 1513.127385701881 392.25251726041694Q1516.8015926803823 391.32894610735104 1519.6927719421537 391.32894610735104L1519.6927719421537 391.32894610735104Q1526.1979252811398 391.32894610735104 1529.5107348519196 393.4772529199174Q1532.8235444226993 395.62555973248374 1533.5262616043801 400.08279442771493L1533.5262616043801 400.08279442771493Q1534.9517736015036 398.3159626566323 1536.4977514012007 396.5491308855497Q1538.0437292008983 394.78229911446704 1539.6700175356445 392.95523444209755L1539.6700175356445 392.95523444209755ZM1520.254945687498 420.7627572028866L1520.254945687498 420.7627572028866Q1521.178516840564 419.27701230447616 1522.5237183026384 416.9881620555737Q1523.8689197647127 414.6993118066712 1525.3345870293606 412.24984048767027Q1526.820331927771 409.82044680243166 1528.2458439248944 407.57175182105374Q1529.651278288256 405.3029792059136 1530.715392877658 403.7570014062163L1530.715392877658 403.7570014062163Q1530.715392877658 403.1145171258226 1530.534694173797 401.70908276246143Q1530.3539954699363 400.30364839910027 1529.5709677532063 398.83798113445215Q1528.8080176702392 397.3923915035664 1527.1014188004433 396.34835454792665Q1525.4148975644098 395.2842399585246 1522.3831748663024 395.2842399585246L1522.3831748663024 395.2842399585246Q1520.1947127862113 395.2842399585246 1517.4641545945383 395.9468018726806Q1514.7536740366272 396.6294414205989 1511.681796070995 398.2155744878208Q1508.6099181053628 399.8017075550427 1505.3774190696317 402.41179994414205Q1502.1248424001387 405.02189233324134 1498.8722657306457 408.89687564936577L1498.8722657306457 408.89687564936577Q1494.0134783601688 414.75954470795807 1491.363230703545 420.662369034075Q1488.7129830469207 426.5451157264297 1488.7129830469207 431.28343729433305L1488.7129830469207 431.28343729433305Q1488.7129830469207 435.29896404679357 1490.5400477192902 437.48742612688454Q1492.3871900254221 439.67588820697557 1495.7602324974891 439.67588820697557L1495.7602324974891 439.67588820697557Q1499.6552934473757 439.67588820697557 1503.0484135532051 437.9492117034175Q1506.4214560252717 436.2225351998595 1509.3929458220923 433.471899374424Q1512.3644356189134 430.7212635489886 1515.0347609092996 427.3682987106841Q1517.7251638334483 424.0153338723796 1520.254945687498 420.7627572028866Z " fill="#8000ff" transform="matrix(0.5675138239125792,0,0,0.5675138239125792,-5.916865129365349,67.80294002248083)"/></g></svg>